<svg xmlns="http://www.w3.org/2000/svg" viewBox="0 0 750 500"><g id="freepik--background-simple--inject-65"><path d="M706.09,447.45S750.9,339.29,679.82,208,472.76,50.34,372.32,94.37s-151.43,67.22-231,89.63S26.19,291.39,31.6,357.06s59.49,90.39,59.49,90.39Z" style="fill:#92E3A9"></path><path d="M706.09,447.45S750.9,339.29,679.82,208,472.76,50.34,372.32,94.37s-151.43,67.22-231,89.63S26.19,291.39,31.6,357.06s59.49,90.39,59.49,90.39Z" style="fill:#fff;opacity:0.7000000000000001"></path></g><g id="freepik--Coins--inject-65"><g style="opacity:0.30000000000000004"><path d="M404,142.66c0-5.09-2.55-9.11-10.91-12l-.37-.12V115.34a16.56,16.56,0,0,1,3,.42l.77,3.41c.74,3.22,2.29,4.09,3.65,4.09a2.82,2.82,0,0,0,2.73-1.92c-.34-4.92-4.59-8.46-10.16-9v-5.65h-2.48v5.62c-6.58.47-11.22,5.23-11.22,11.24,0,6.19,3.84,9.54,10.35,11.83l.8.29V151a23.2,23.2,0,0,1-4.45-.51l-.75-3.38c-.75-3.29-2.11-4.09-3.6-4.09a2.87,2.87,0,0,0-2.79,1.92c.25,5.31,5.12,8.92,11.59,9v6.33h2.48v-6.45C399.72,153.13,404,148.7,404,142.66Zm-20.15-20.4c0-4,2.67-6.3,6.39-6.82v14.22C386.1,128.23,383.8,126.08,383.8,122.26Zm8.8,28.64V136.57c4.56,1.75,6.51,3.61,6.51,7.26C399.11,147.83,396.61,150.32,392.6,150.9Z" style="fill:none;stroke:#000;stroke-miterlimit:10"></path><circle cx="391.24" cy="133.51" r="37.66" style="fill:none;stroke:#000;stroke-miterlimit:10"></circle><circle cx="391.24" cy="133.51" r="33.16" style="fill:none;stroke:#000;stroke-miterlimit:10"></circle></g><g style="opacity:0.30000000000000004"><path d="M634.17,309.65c0-3.76-1.88-6.74-8.06-8.89l-.28-.09V289.46a12.79,12.79,0,0,1,2.23.31l.57,2.52c.55,2.38,1.69,3,2.7,3a2.07,2.07,0,0,0,2-1.42c-.25-3.63-3.39-6.25-7.51-6.63v-4.18H624v4.16c-4.86.34-8.29,3.86-8.29,8.3s2.84,7,7.65,8.75l.59.21v11.32a17,17,0,0,1-3.28-.38l-.56-2.5c-.55-2.42-1.56-3-2.66-3a2.12,2.12,0,0,0-2.06,1.42c.18,3.92,3.78,6.6,8.56,6.68v4.68h1.84v-4.76C631.05,317.39,634.17,314.11,634.17,309.65Zm-14.89-15.07c0-3,2-4.66,4.72-5V300C621,299,619.28,297.4,619.28,294.58Zm6.51,21.16V305.15c3.36,1.29,4.81,2.67,4.81,5.37C630.6,313.47,628.75,315.31,625.79,315.74Z" style="fill:none;stroke:#000;stroke-miterlimit:10"></path><circle cx="624.78" cy="302.89" r="27.83" transform="translate(-40.17 103.06) rotate(-9.14)" style="fill:none;stroke:#000;stroke-miterlimit:10"></circle><circle cx="624.78" cy="302.89" r="24.51" style="fill:none;stroke:#000;stroke-miterlimit:10"></circle></g><g style="opacity:0.30000000000000004"><path d="M573.34,112.59c0-3.76-1.88-6.74-8.06-8.89l-.27-.09V92.4a12.92,12.92,0,0,1,2.23.31l.56,2.52c.55,2.38,1.69,3,2.7,3a2.09,2.09,0,0,0,2-1.42c-.26-3.63-3.4-6.25-7.51-6.63V86h-1.84v4.16c-4.85.34-8.29,3.86-8.29,8.3s2.84,7,7.65,8.75l.6.21v11.32a17.05,17.05,0,0,1-3.29-.38l-.56-2.5c-.55-2.42-1.56-3-2.66-3a2.12,2.12,0,0,0-2.06,1.42c.18,3.92,3.78,6.6,8.57,6.68v4.68H565v-4.76C570.22,120.32,573.34,117.05,573.34,112.59ZM558.46,97.52c0-3,2-4.66,4.71-5V103C560.15,101.92,558.46,100.34,558.46,97.52Zm6.5,21.15V108.09c3.37,1.29,4.81,2.67,4.81,5.37C569.77,116.41,567.92,118.25,565,118.67Z" style="fill:none;stroke:#000;stroke-miterlimit:10"></path><circle cx="563.95" cy="105.83" r="27.83" transform="translate(-9.15 134.03) rotate(-13.45)" style="fill:none;stroke:#000;stroke-miterlimit:10"></circle><circle cx="563.95" cy="105.83" r="24.51" style="fill:none;stroke:#000;stroke-miterlimit:10"></circle></g><g style="opacity:0.30000000000000004"><path d="M257.48,69.48c0-2.36-1.18-4.23-5.07-5.59l-.17-.06v-7a7.48,7.48,0,0,1,1.4.2l.36,1.58c.34,1.5,1.06,1.9,1.7,1.9a1.3,1.3,0,0,0,1.26-.89c-.16-2.29-2.13-3.93-4.72-4.17V52.77h-1.15v2.61a5.31,5.31,0,0,0-5.22,5.23c0,2.88,1.79,4.43,4.81,5.5l.38.13v7.13a11.06,11.06,0,0,1-2.07-.24l-.35-1.57c-.35-1.53-1-1.91-1.67-1.91a1.33,1.33,0,0,0-1.3.9c.11,2.47,2.38,4.15,5.39,4.2v2.94h1.15v-3C255.52,74.35,257.48,72.29,257.48,69.48ZM248.12,60a3.09,3.09,0,0,1,3-3.17v6.61C249.19,62.77,248.12,61.77,248.12,60Zm4.09,13.31V66.65c2.12.82,3,1.68,3,3.38A3.16,3.16,0,0,1,252.21,73.31Z" style="fill:none;stroke:#000;stroke-miterlimit:10"></path><circle cx="251.58" cy="65.23" r="17.51" transform="translate(95.95 273.38) rotate(-67.75)" style="fill:none;stroke:#000;stroke-miterlimit:10"></circle><circle cx="251.58" cy="65.23" r="15.42" transform="translate(-7.22 41.34) rotate(-9.26)" style="fill:none;stroke:#000;stroke-miterlimit:10"></circle></g><g style="opacity:0.30000000000000004"><path d="M57.78,425.21c0-2.37-1.18-4.24-5.07-5.59l-.18-.06v-7.05a8.59,8.59,0,0,1,1.41.19l.35,1.59c.35,1.49,1.07,1.9,1.7,1.9a1.31,1.31,0,0,0,1.27-.89c-.16-2.29-2.14-3.94-4.73-4.18v-2.63H51.38v2.62a5.3,5.3,0,0,0-5.21,5.22c0,2.88,1.78,4.44,4.81,5.51l.37.13v7.12a10.45,10.45,0,0,1-2.07-.24l-.35-1.57c-.34-1.53-1-1.9-1.67-1.9a1.35,1.35,0,0,0-1.3.89c.12,2.47,2.38,4.15,5.39,4.21v2.94h1.16v-3C55.81,430.08,57.78,428,57.78,425.21Zm-9.37-9.48a3.09,3.09,0,0,1,3-3.17v6.6C49.48,418.5,48.41,417.5,48.41,415.73ZM52.51,429v-6.66c2.11.81,3,1.68,3,3.37A3.18,3.18,0,0,1,52.51,429Z" style="fill:none;stroke:#000;stroke-miterlimit:10"></path><circle cx="51.87" cy="420.96" r="17.51" transform="translate(-95.33 23.18) rotate(-13.28)" style="fill:none;stroke:#000;stroke-miterlimit:10"></circle><circle cx="51.87" cy="420.96" r="15.42" transform="translate(-95.33 23.18) rotate(-13.28)" style="fill:none;stroke:#000;stroke-miterlimit:10"></circle></g><g style="opacity:0.30000000000000004"><path d="M660.3,227.83c0-2.36-1.18-4.23-5.07-5.59l-.17-.06v-7.05a7.6,7.6,0,0,1,1.4.2l.35,1.58c.35,1.5,1.07,1.9,1.7,1.9a1.3,1.3,0,0,0,1.27-.89c-.16-2.29-2.13-3.93-4.72-4.17v-2.63H653.9v2.61a5.31,5.31,0,0,0-5.21,5.23c0,2.88,1.78,4.43,4.81,5.5l.37.13v7.13a11.06,11.06,0,0,1-2.06-.24l-.36-1.57c-.34-1.53-1-1.9-1.67-1.9a1.32,1.32,0,0,0-1.29.89c.11,2.47,2.37,4.15,5.38,4.2V236H655v-3C658.34,232.7,660.3,230.64,660.3,227.83Zm-9.36-9.48a3.08,3.08,0,0,1,3-3.17v6.61C652,221.12,650.94,220.13,650.94,218.35ZM655,231.66V225c2.12.81,3,1.67,3,3.37A3.16,3.16,0,0,1,655,231.66Z" style="fill:none;stroke:#000;stroke-miterlimit:10"></path><circle cx="654.39" cy="223.58" r="17.51" transform="translate(33.57 528.21) rotate(-45)" style="fill:none;stroke:#000;stroke-miterlimit:10"></circle><circle cx="654.39" cy="223.58" r="15.42" transform="translate(33.57 528.21) rotate(-45)" style="fill:none;stroke:#000;stroke-miterlimit:10"></circle></g><g style="opacity:0.30000000000000004"><path d="M396.08,413.85c0-3.75-1.87-6.73-8.06-8.88l-.27-.1v-11.2A12,12,0,0,1,390,394l.56,2.52c.55,2.38,1.7,3,2.7,3a2.09,2.09,0,0,0,2-1.42c-.26-3.64-3.4-6.25-7.51-6.63v-4.18h-1.83v4.15c-4.86.35-8.29,3.87-8.29,8.31s2.84,7.05,7.64,8.74l.6.21V420a17.87,17.87,0,0,1-3.29-.38l-.56-2.5c-.55-2.43-1.55-3-2.65-3a2.11,2.11,0,0,0-2.06,1.42c.18,3.92,3.77,6.59,8.56,6.68v4.68h1.83v-4.77C393,421.59,396.08,418.32,396.08,413.85ZM381.2,398.78c0-3,2-4.65,4.72-5v10.51C382.89,403.19,381.2,401.6,381.2,398.78Zm6.5,21.16V409.36c3.37,1.29,4.81,2.67,4.81,5.36C392.51,417.68,390.66,419.52,387.7,419.94Z" style="fill:none;stroke:#000;stroke-miterlimit:10"></path><circle cx="386.69" cy="407.1" r="27.83" transform="translate(-81.82 97.66) rotate(-13.03)" style="fill:none;stroke:#000;stroke-miterlimit:10"></circle><circle cx="386.69" cy="407.1" r="24.51" transform="translate(-127.52 632.58) rotate(-70.15)" style="fill:none;stroke:#000;stroke-miterlimit:10"></circle></g><g style="opacity:0.30000000000000004"><path d="M70.74,141c0-3.75-1.87-6.73-8.06-8.88l-.27-.09V120.85a12,12,0,0,1,2.23.31l.56,2.52c.55,2.38,1.7,3,2.7,3a2.09,2.09,0,0,0,2-1.42c-.25-3.63-3.4-6.25-7.51-6.63v-4.18H60.58v4.16c-4.86.34-8.29,3.86-8.29,8.3s2.84,7,7.65,8.75l.59.21v11.32a17.05,17.05,0,0,1-3.29-.38l-.56-2.5c-.55-2.42-1.55-3-2.65-3A2.11,2.11,0,0,0,52,142.73c.18,3.92,3.77,6.59,8.56,6.68v4.68h1.83v-4.77C67.62,148.77,70.74,145.5,70.74,141ZM55.86,126c0-3,2-4.66,4.72-5v10.5C57.56,130.37,55.86,128.78,55.86,126Zm6.5,21.15V136.54c3.37,1.29,4.81,2.67,4.81,5.37C67.17,144.86,65.32,146.7,62.36,147.12Z" style="fill:none;stroke:#000;stroke-miterlimit:10"></path><circle cx="61.35" cy="134.28" r="27.83" transform="translate(-86.18 139.58) rotate(-67.5)" style="fill:none;stroke:#000;stroke-miterlimit:10"></circle><circle cx="61.35" cy="134.28" r="24.51" transform="translate(-86.18 139.58) rotate(-67.5)" style="fill:none;stroke:#000;stroke-miterlimit:10"></circle></g></g><g id="freepik--Clouds--inject-65"><path d="M527.15,53.85s-3.87-18.07-17.43-22.58S492.94,35.78,489.07,41s-9.68-2.59-18.07,0-5.16,9.68-10.33,12.26-14.19-3.23-20,1.29-7.1,8.39-7.1,8.39H556.19S536.83,44.82,527.15,53.85Z" style="fill:none;stroke:#263238;stroke-miterlimit:10"></path><path d="M333.54,95.94s-2-9.23-8.9-11.53-8.57,2.3-10.54,4.94-5-1.32-9.23,0-2.64,4.94-5.27,6.26-7.26-1.65-10.22.66-3.63,4.28-3.63,4.28h62.62S338.48,91.33,333.54,95.94Z" style="fill:none;stroke:#263238;stroke-miterlimit:10"></path><path d="M662.75,128.72s-3-14-13.49-17.48-13,3.49-16,7.49-7.49-2-14,0-4,7.49-8,9.49-11-2.5-15.48,1-5.5,6.49-5.5,6.49h94.92S670.24,121.73,662.75,128.72Z" style="fill:none;stroke:#263238;stroke-miterlimit:10"></path><path d="M191.25,83.81s-4.36-20.36-19.63-25.45-18.91,5.09-23.27,10.91-10.91-2.91-20.37,0-5.82,10.91-11.63,13.82-16-3.64-22.55,1.45-8,9.45-8,9.45H224S202.16,73.63,191.25,83.81Z" style="fill:none;stroke:#263238;stroke-miterlimit:10"></path></g><g id="freepik--character-2--inject-65"><path d="M426.93,181.88V447.39H692.45V181.88Zm248.9,248.89H443.55V198.5H675.83Z" style="fill:#263238;stroke:#263238;stroke-linecap:round;stroke-linejoin:round"></path><path d="M446,281.26s.18-2.37,1.14-1.58,1.73,9,2.13,11,.57,3.66.57,3.66L487.54,289l-.26-1.44,8.89-.73,1.05.92,6.71-1.71,1.45,3.29-15.94,9.31-41.52-2.53Z" style="fill:#fff;stroke:#263238;stroke-linecap:round;stroke-linejoin:round"></path><path d="M492,272s3.42,6.84,4.34,7.23a13.22,13.22,0,0,0,2.24.66s-.13,5.79.39,5.92,2.5.53,2.5.53,6.19,5.66,7,5,3.94-3.16,3.94-3.16l6.06,2.76L522.35,273l-2.63-2.24s-5.39-5.92-8.55-8.16-11.71-2.23-15.4.27S491.3,270.78,492,272Z" style="fill:#fff;stroke:#263238;stroke-linecap:round;stroke-linejoin:round"></path><path d="M499.59,267.23a23.06,23.06,0,0,1-4.87,4.21c-2.76,1.71-6.45,3.95-6.45,3.95l.79-8.42-2.76,1.18s.79-7.76,7.37-12a24,24,0,0,1,15.39-3.29c1.06.26,6.45,3.55,7,5.13s3,10.79,3.29,11.58,1,2.1.65,2.5-.65,1-1.71.65a10.73,10.73,0,0,1-2.63-2s-1.71-2.76-3.81-1.58-2.11,4.61-2.11,4.61-1.18,1.05-1.71.39-3.29-3.16-3.29-3.16-1.45.93-2.37.53S499.59,267.23,499.59,267.23Z" style="fill:#263238;stroke:#263238;stroke-linecap:round;stroke-linejoin:round"></path><path d="M498.54,278.54s-.13-1.71,2.37-2.23" style="fill:none;stroke:#263238;stroke-linecap:round;stroke-linejoin:round"></path><path d="M500.38,279.07l1.45,1.32a12.72,12.72,0,0,0,2-1.58" style="fill:none;stroke:#263238;stroke-linecap:round;stroke-linejoin:round"></path><path d="M515.64,270.78s1.84,2,.79,3.82a6.49,6.49,0,0,1-2,2.37,15.21,15.21,0,0,1,.52,3.55" style="fill:none;stroke:#263238;stroke-linecap:round;stroke-linejoin:round"></path><path d="M506.36,418.32a24.45,24.45,0,0,1-1.14,2.77c-.66,1.31-5.39,3.92-7.68,5.22s-6.36,2.78-6.2,3.59,9.63.66,12.57.33,5.39-.49,6.36-1l1-.49h1.8l.16,1.14,6.21-.81a16,16,0,0,0-1.15-4.57,29.08,29.08,0,0,0-1.79-3.59L515,418.48Z" style="fill:#fff;stroke:#263238;stroke-linecap:round;stroke-linejoin:round"></path><path d="M511.25,428.76h1.8l.16,1.14,6.21-.81a16,16,0,0,0-1.15-4.57,29.08,29.08,0,0,0-1.79-3.59l-.22-.37c-3.25,3-7.62,1.51-7.62,1.51a7.05,7.05,0,0,0-.81-2.12,2,2,0,0,0-1.8-.74c-.2.53-.49,1.23-.81,1.88-.66,1.31-5.39,3.92-7.68,5.22s-6.36,2.78-6.2,3.59,9.63.66,12.57.33,5.39-.49,6.36-1Z" style="fill:#263238;stroke:#263238;stroke-linecap:round;stroke-linejoin:round"></path><path d="M586,414.62s1.34,5.26,1,5.91a7.53,7.53,0,0,1-1.73,3.77,22,22,0,0,1-6.25,4c-1.63.66-1.63,2.45,1,2.45s9.07-.11,10.29-.49a12.45,12.45,0,0,0,4.52-3.59c.32-.65-.33-2.61.81-3.26l1.15-.65,1.3,1,3.76-5.55A18.21,18.21,0,0,0,598,415.1c-2.29-1.3-6.2-3.59-6.2-3.59Z" style="fill:#fff;stroke:#263238;stroke-linecap:round;stroke-linejoin:round"></path><path d="M598,415.1l-2.8-1.6a16.38,16.38,0,0,1-5.11,5.58,6.85,6.85,0,0,0-2.71-1.06.74.74,0,0,0-.49.18,6.6,6.6,0,0,1,.2,2.33,7.53,7.53,0,0,1-1.73,3.77,22,22,0,0,1-6.25,4c-1.63.66-1.63,2.45,1,2.45s9.07-.11,10.29-.49a12.45,12.45,0,0,0,4.52-3.59c.32-.65-.33-2.61.81-3.26l1.15-.65,1.3,1,3.76-5.55A18.21,18.21,0,0,0,598,415.1Z" style="fill:#263238;stroke:#263238;stroke-linecap:round;stroke-linejoin:round"></path><path d="M526.39,328.5l-3.59,9S493,359.56,485,372c0,0,0,3.59.65,5.06s15.5,42.77,15.5,42.77h14.53s-4.9-18.94-6.36-26.94-4.25-19.26-4.25-19.26l34.08-17.83S549.9,383.5,551.2,384s31.25,34.54,31.25,34.54l10.45-7.34s-8.51-15.31-12.15-20.67c-4.27-6.28-13.55-14.85-13.55-14.85s-5.39-41.13-6.2-45.05-1.15-6.15-1.15-6.15S540.76,330.62,526.39,328.5Z" style="fill:#263238;stroke:#263238;stroke-linecap:round;stroke-linejoin:round"></path><path d="M515.51,298s2.5,11.58,5.79,14.73,4.61,6.32,4.74,7.64-1.71,8.29-1.58,8.94,2,1.45,2.63,1.58,13.29,3,19.74,1.84,11.44-3.28,12.5-4.73,1.44-1.45.52-3.55-2.5-5.93-2.5-5.93-6.58-26.18-7.37-28.68-7.5-10.13-13.55-12.89a61.41,61.41,0,0,0-14.08-4l-1.71.79S515.25,290.78,515.51,298Z" style="fill:#92E3A9;stroke:#263238;stroke-linecap:round;stroke-linejoin:round"></path><polygon points="521.3 271.57 513.93 289.86 519.99 294.46 525.12 273.02 521.3 271.57" style="fill:#92E3A9;stroke:#263238;stroke-linecap:round;stroke-linejoin:round"></polygon><path d="M492.54,289.27s-42.6,4.58-43.48,4.2-1.24-3.61-1.67-5.4-.73-5.53-1.36-6.81-1-3.58-1.53-2.46-.26,3.95-.07,4.5.18,9.72.3,11.85,1.12,3.82,2.84,4,48.86,1.68,48.86,1.68Z" style="fill:#fff;stroke:#263238;stroke-linecap:round;stroke-linejoin:round"></path><polygon points="515.51 290.25 511.17 331.57 516.43 337.75 520.38 330.52 518.41 290.91 515.51 290.25" style="fill:#263238;stroke:#263238;stroke-linecap:round;stroke-linejoin:round"></polygon><path d="M529.72,298.28s13.16,8.16,18.69,8.69" style="fill:none;stroke:#263238;stroke-linecap:round;stroke-linejoin:round"></path><path d="M531.17,301.31s7,6.84,9.21,7.63" style="fill:none;stroke:#263238;stroke-linecap:round;stroke-linejoin:round"></path><path d="M538.14,281.18s-9.87-3.29-14.73-2.11S496.3,290,496.3,290l5.13,10.92,43-2.5" style="fill:#92E3A9;stroke:#263238;stroke-linecap:round;stroke-linejoin:round"></path><path d="M490.57,288.35s5.2,15.33,5.6,15.33,8.68-.53,8.68-1.58-5.92-14.21-7.63-14.35A50.65,50.65,0,0,0,490.57,288.35Z" style="fill:#92E3A9;stroke:#263238;stroke-linecap:round;stroke-linejoin:round"></path><line x1="539.13" y1="355.76" x2="530.31" y2="345.31" style="fill:none;stroke:#fff;stroke-linecap:round;stroke-linejoin:round"></line><line x1="531.78" y1="350.21" x2="525.58" y2="344" style="fill:none;stroke:#fff;stroke-linecap:round;stroke-linejoin:round"></line></g><g id="freepik--character-1--inject-65"><path d="M383.52,290.69v-30.4l-27.26-2.86a144.75,144.75,0,0,0-10.33-38.63l22.16-16.09-15.2-26.33-25.05,11.16a146.66,146.66,0,0,0-28.26-28.27l11.16-25.05L284.41,119l-16.09,22.16a144.9,144.9,0,0,0-38.64-10.32l-2.86-27.27h-30.4l-2.86,27.27a144.83,144.83,0,0,0-38.63,10.32L138.84,119l-26.33,15.2,11.16,25.05A146.71,146.71,0,0,0,95.4,187.54l-25-11.16L55.15,202.71,77.31,218.8A144.73,144.73,0,0,0,67,257.43l-27.27,2.86v30.4L67,293.55a144.9,144.9,0,0,0,10.32,38.64L55.15,348.28l15.21,26.33,25-11.16a146.66,146.66,0,0,0,28.27,28.26l-11.16,25.05L138.84,432l16.09-22.16a144.85,144.85,0,0,0,38.63,10.33l2.86,27.26h30.4l2.86-27.26a144.92,144.92,0,0,0,38.64-10.33L284.41,432l26.33-15.2-11.16-25.05a146.61,146.61,0,0,0,28.26-28.26l25.05,11.16,15.2-26.33-22.16-16.09a144.92,144.92,0,0,0,10.33-38.64ZM211.62,391A115.46,115.46,0,1,1,327.08,275.49,115.46,115.46,0,0,1,211.62,391Z" style="fill:#263238;stroke:#263238;stroke-linecap:round;stroke-linejoin:round"></path><path d="M188.94,246.59l-15.6-14.43s-4.76-6.41-5.06-7.42-2,0-2.48.65-4.7,6.11-3.68,7.41a11.16,11.16,0,0,0,4.49,3.11c1.42.46,3.91,1.53,3.91,1.53L183,256.14Z" style="fill:#fff;stroke:#263238;stroke-linecap:round;stroke-linejoin:round"></path><path d="M169.2,224.89s-1.34-2.5-2.24-2.28-2.41,1.49-2.29,1.94a17.76,17.76,0,0,0,2.91,4.06c.56.26,1.94-.69,2.29-1.1S169.2,224.89,169.2,224.89Z" style="fill:#fff;stroke:#263238;stroke-linecap:round;stroke-linejoin:round"></path><path d="M164.67,224.55s-2.33,1.56-2.06,2.15,2.65,3.54,3.34,3.56,1.63-1.65,1.63-1.65Z" style="fill:#fff;stroke:#263238;stroke-linecap:round;stroke-linejoin:round"></path><path d="M162.61,226.7s-2,2-1.64,2.42,2.41,2.49,3.79,2.54,1.19-1.4,1.19-1.4Z" style="fill:#fff;stroke:#263238;stroke-linecap:round;stroke-linejoin:round"></path><path d="M161,229.12s-1.26,1.63-.82,2.36,3.36,1.8,3.88,1.69,1.27-1.48,1.27-1.48S161.24,229.71,161,229.12Z" style="fill:#fff;stroke:#263238;stroke-linecap:round;stroke-linejoin:round"></path><path d="M175.45,234.19s-2.85-5.53-3.52-6.86-1.4-3.23-2.32-3.16a10.2,10.2,0,0,0-4.27,2.75c-.73,1-1.92,1.87-1,2.38s1.5,0,2-.39,2.3-1.56,2.3-1.56-.69,4.42.68,5.81a6.06,6.06,0,0,0,3.7,1.45" style="fill:#fff;stroke:#263238;stroke-linecap:round;stroke-linejoin:round"></path><path d="M198.11,247.17l-3.44,2.66-3.55-2L186,258.31s3.31,3.42,4.48,3.83,11-1.27,11-1.27Z" style="fill:#92E3A9;stroke:#263238;stroke-linecap:round;stroke-linejoin:round"></path><path d="M193.45,248.67,187,259.86,182,257s6.49-12.08,7.51-11.91S193.45,248.67,193.45,248.67Z" style="fill:#92E3A9;stroke:#263238;stroke-linecap:round;stroke-linejoin:round"></path><path d="M266.87,351.37l1.48,2s.92,6,.25,8.6-2.62,7.14-1.4,7.12,4.32-2.52,6.61-5.12a12.25,12.25,0,0,0,3.11-5.47c.11-.79.45-5.68.45-5.68l2.27.57a20.77,20.77,0,0,0,1.1-3.06c.25-1.37.65-3,.65-3s-2.78-1.42-4.47-2.18a16.47,16.47,0,0,0-4.09-1l-3.63-.91Z" style="fill:#fff;stroke:#263238;stroke-linecap:round;stroke-linejoin:round"></path><path d="M276.92,358.46c.11-.79.45-5.68.45-5.68l2.27.57a20.77,20.77,0,0,0,1.1-3.06c.25-1.37.65-3,.65-3s-2.78-1.42-4.47-2.18a12.42,12.42,0,0,0-2.49-.75,76.89,76.89,0,0,1-1.66,8.5s-1.81-.31-2.85-.37a1.78,1.78,0,0,0-1.57.86s.92,6,.25,8.6-2.62,7.14-1.4,7.12,4.32-2.52,6.61-5.12A12.25,12.25,0,0,0,276.92,358.46Z" style="fill:#263238;stroke:#263238;stroke-linecap:round;stroke-linejoin:round"></path><path d="M208.81,310.61s7.53,17.16,9.54,18.29l47.15,26.28,5.75-12.32L241.55,322c-5.2-3.66-9.93-6.71-9.93-6.71l-4.28-19.34Z" style="fill:#263238;stroke:#263238;stroke-linecap:round;stroke-linejoin:round"></path><path d="M177.59,368.41l-1,3.91s-9.79-.14-11.38-1.2c-4.38-2.92-5.94,0-5.94,0a16.35,16.35,0,0,0,4.19,5.42c1.78,1.53,7.49,4.06,11.78,5.84l-.75,1.21a54,54,0,0,0,8.58,3.35s1,.21,1.83-1.18a14,14,0,0,0,1.86-3.76c.68-2.19,1.33-10.37,1.33-10.37Z" style="fill:#fff;stroke:#263238;stroke-linecap:round;stroke-linejoin:round"></path><path d="M165.22,371.12c-4.38-2.92-5.94,0-5.94,0a16.35,16.35,0,0,0,4.19,5.42c1.78,1.53,7.49,4.06,11.78,5.84l-.75,1.21a54,54,0,0,0,8.58,3.35s1,.21,1.83-1.18a14,14,0,0,0,1.86-3.76,29.82,29.82,0,0,0,.71-4.16,42,42,0,0,1-11.86-2.79l1-2.75S166.81,372.18,165.22,371.12Z" style="fill:#263238;stroke:#263238;stroke-linecap:round;stroke-linejoin:round"></path><path d="M199.19,281.12l1.41,11.74s-8.5,10.87-12.44,15.23-10,11.05-10.11,13-4.35,46.79-4.35,46.79l14.14,6s5.48-25.86,6.41-30.43,3.35-18.27,3.35-18.27,30.4-26.25,32.59-28.34,4.07-8.23,3.56-12-.75-7.23-.75-7.23Z" style="fill:#263238;stroke:#263238;stroke-linecap:round;stroke-linejoin:round"></path><path d="M202.39,225s-6.81,8-7.06,14.51,2.78,31,3,33.49-.1,6.93.88,8.11,20.64.17,25.63-.47,8.2-1.27,8.18-3.15-.84-14.16-.84-14.16,2-29.47.48-34.38-11.48-11.7-11.48-11.7S205,221.66,202.39,225Z" style="fill:#92E3A9;stroke:#263238;stroke-linecap:round;stroke-linejoin:round"></path><path d="M238.88,258.32,223.54,277.4s-5.83,3.44-5.78,4.11-.37,4-.37,4,.12,1.48.68,1.71,2.51-.74,2.51-.74,3.49,1.23,4,1.05,3.31-.94,3.69-1.37,2.49-8.06,2.6-8.47,19.36-16,19.36-16Z" style="fill:#fff;stroke:#263238;stroke-linecap:round;stroke-linejoin:round"></path><path d="M219,222.84s10.31,0,12.12,2.31,20.54,16.71,24.33,20.08,4.46,5.08,3.86,6.07-5.56,6.94-5.56,6.94l-13.91-4.48.15-3.26-25.41-7.8" style="fill:#92E3A9;stroke:#263238;stroke-linecap:round;stroke-linejoin:round"></path><polyline points="247.54 247.61 240.03 250.5 248.92 250.79" style="fill:none;stroke:#263238;stroke-linecap:round;stroke-linejoin:round"></polyline><path d="M239.5,252.3l-2.26,5.87s14.07,6.64,14.39,5.53,3.92-3.65,4.05-5.42S243.55,250.36,239.5,252.3Z" style="fill:#92E3A9;stroke:#263238;stroke-linecap:round;stroke-linejoin:round"></path><line x1="224.22" y1="245.89" x2="214.71" y2="245.68" style="fill:none;stroke:#263238;stroke-linecap:round;stroke-linejoin:round"></line><path d="M202.21,226s1.47,5.92,2.7,7.21,4.73-.74,6.76-2,22.55-14.33,24.15-14.83,21.08-.76,21.08-.76l4.88-3.52s-6.21-5.43-6.58-5.4-20.55,4.36-21.63,5.07-25.08,18.93-25.95,19.12l-.86.2-1.29-.41,2.62-3.47-3.62-2.87Z" style="fill:#263238;stroke:#263238;stroke-linecap:round;stroke-linejoin:round"></path><polygon points="206.1 219.31 200.26 223.54 198.54 228.96 201.28 225.35 204.27 226.62 206.69 222.03 206.1 219.31" style="fill:#fff;stroke:#263238;stroke-linecap:round;stroke-linejoin:round"></polygon><path d="M203.32,185.05s-4.69,6.15-4.78,8.17.27,3.5,0,4.66-4,5-3.33,5.67.45,1,1.35,1.28-.69,10.49,1.37,11.09,6.37-.62,6.37-.62l2.41,6.73,13.63-6s-1.85-4.39-1.67-5.28,5.8-4.73,7.13-8.61,1.08-12-3.75-15.94S207,180.11,203.32,185.05Z" style="fill:#fff;stroke:#263238;stroke-linecap:round;stroke-linejoin:round"></path><path d="M211.67,211.71c.24-1.78-.24-11.31.88-13s4.67-3,4.91,0-4.2,5.87-4.2,5.87,4.63,6.18,5.39,6.25c.18-.9,5.8-4.73,7.13-8.61s1.08-12-3.75-15.94-15.07-6.13-18.71-1.19c0,0-.36.47-.88,1.19l.22.12s3.38-.26,4.38,1.29.81,2.33-.25,3.3-2.21,2.31-1.24,3.49,3.78,3.23,3.82,3.73-1.33,8.91-2.15,9.6a3.22,3.22,0,0,1-4,.06c-1.84-1.11-4.49-4.43-6.65-3,.91.3-.69,10.49,1.37,11.09s6.37-.62,6.37-.62S211.43,213.49,211.67,211.71Z" style="fill:#263238;stroke:#263238;stroke-linecap:round;stroke-linejoin:round"></path><path d="M223.24,187.28s-.26-1.74,2.07-2.55,5.12-.52,6.4,3-.83,7.11-2.38,6.6-3-4.68-3.75-6.13A2,2,0,0,0,223.24,187.28Z" style="fill:#263238;stroke:#263238;stroke-linecap:round;stroke-linejoin:round"></path><path d="M199.6,195.53s2-2.17,3.27,0" style="fill:none;stroke:#263238;stroke-linecap:round;stroke-linejoin:round"></path><path d="M201.2,198.36c.05.59-.14,1.08-.42,1.1s-.53-.43-.58-1,.14-1.08.42-1.1S201.16,197.77,201.2,198.36Z" style="fill:#263238"></path><path d="M220.51,213.66c-.37.16-17.56,8.91-17.56,8.91l2.82,7.08,17-11.63Z" style="fill:#92E3A9;stroke:#263238;stroke-linecap:round;stroke-linejoin:round"></path></g><g id="freepik--Floor--inject-65"><line x1="725.24" y1="447.39" x2="18.17" y2="447.39" style="fill:none;stroke:#263238;stroke-linecap:round;stroke-linejoin:round"></line></g></svg>